<svg id="_30-leadership" height="512" viewBox="0 0 192 192" width="512" xmlns="http://www.w3.org/2000/svg" data-name="30-leadership"><g id="Glyph"><path d="m135.391 43.062a8 8 0 0 0 -1.734-8.719l-32-32a8 8 0 0 0 -11.314 0l-32 32a8 8 0 0 0 5.657 13.657h8v88a8 8 0 0 0 8 8h32a8 8 0 0 0 8-8v-88h8a8 8 0 0 0 7.391-4.938z"/><path d="m72 176h48v16h-48z"/><path d="m72 152h48v16h-48z"/><path d="m167.438 49.344a8 8 0 0 0 -8.875 0l-24 16 8.875 13.312 11.562-7.708v33.052h16v-33.052l11.563 7.708 8.875-13.312z"/><path d="m151.563 121.344-24 16 8.875 13.312 11.562-7.708v33.052h16v-33.052l11.563 7.708 8.875-13.312-24-16a8 8 0 0 0 -8.875 0z"/><path d="m27.562 81.344-24 16 8.875 13.312 11.563-7.708v33.052h16v-33.052l11.563 7.708 8.875-13.312-24-16a8 8 0 0 0 -8.876 0z"/></g></svg>